<?xml version="1.0" encoding="UTF-8"?>
<!DOCTYPE svg PUBLIC "-//W3C//DTD SVG 1.1//EN" "http://www.w3.org/Graphics/SVG/1.1/DTD/svg11.dtd">
<svg version="1.1" xmlns="http://www.w3.org/2000/svg" xmlns:xlink="http://www.w3.org/1999/xlink" x="0" y="0" width="600" height="168" viewBox="0, 0, 600, 168">
  <g id="Layer_1">
    <g>
      <path d="M528,19.6 C528,20.1 529.2,21.4 530.7,22.4 C532.3,23.6 533.1,23.8 532.8,23 C532.3,21.4 528,18.4 528,19.6 z" fill="#181616"/>
      <path d="M381,21.9 C381,23.1 381.6,24 382.5,24 C383.3,24 384,23.6 384,23.1 C384,22.6 383.3,21.7 382.5,21 C381.2,20 381,20.1 381,21.9 z" fill="#181616"/>
      <path d="M343.5,23 C342.7,24.3 345,25.4 346.2,24.2 C346.8,23.6 346.6,23.1 345.6,22.7 C344.8,22.4 343.8,22.5 343.5,23 z" fill="#181616"/>
      <path d="M468.6,22.9 C466.9,23.5 467.1,23.8 469.9,25 C473.5,26.4 474.9,25.8 473,23.5 C471.6,21.8 471.4,21.8 468.6,22.9 z" fill="#181616"/>
      <path d="M362.5,25.9 C362,26.8 366.5,31 368.1,31 C370.2,31 369.6,29.1 367,27.2 C363.7,24.7 363.3,24.6 362.5,25.9 z" fill="#181616"/>
      <path d="M476.7,29.2 C472.8,33.7 472.2,35.8 474.2,37.8 C476.1,39.7 477.4,39.2 479.2,35.9 C480.6,33.5 480.7,32.5 479.7,30.9 C478.7,29.2 478.8,28.7 480.3,27.9 C482,26.9 482.7,25 481.2,25 C480.8,25 478.8,26.9 476.7,29.2 z" fill="#181616"/>
      <path d="M494.7,26.6 C493.6,27.7 493.9,31 495,31 C496.5,31 497.4,28 496.3,26.9 C495.8,26.4 495.1,26.3 494.7,26.6 z" fill="#181616"/>
      <path d="M503,27.9 C503,28.9 502.3,30.3 501.5,31 C500.7,31.7 500,33 500,34 C500,35 499,36.4 497.9,37.2 C495.8,38.6 495.8,38.6 499.3,41 C501.3,42.4 503.1,44.3 503.4,45.2 C504,47.6 505.5,47.5 508.1,44.9 C509.7,43.3 510,42.2 509.4,39.7 C509,37.9 508.8,34.9 508.9,32.9 C509,30 508.5,28.9 506.6,27.6 C503.4,25.6 503,25.6 503,27.9 z" fill="#181616"/>
      <path d="M432.2,31.2 C432.4,32.7 433.3,33.6 434.8,33.8 C436.1,34 437.4,34.8 437.7,35.6 C438.3,37.2 440,36.5 440,34.5 C440,33.3 434.2,29 432.6,29 C432.2,29 432,30 432.2,31.2 z" fill="#181616"/>
      <path d="M542.7,31.6 C541.6,32.8 541.9,36.7 543.3,37.8 C544.5,38.8 547.2,39.3 549.8,39.1 C551.6,38.9 551.3,37.2 549.2,36.6 C548.3,36.3 547,35 546.5,33.8 C545.4,31.5 543.8,30.5 542.7,31.6 z" fill="#181616"/>
      <path d="M555.3,41.4 L553.1,44.8 L555.6,47.1 C557,48.4 558.3,49 558.8,48.4 C559.2,47.9 560.6,46.3 561.9,44.7 L564.4,42 L562.2,40 C559.2,37.2 557.8,37.5 555.3,41.4 z" fill="#181616"/>
      <path d="M424,40 C422.8,40.7 422.8,41.2 423.8,42.2 C424.7,43.1 425.3,43.1 426.2,42.2 C427.8,40.6 426,38.8 424,40 z" fill="#181616"/>
      <path d="M212.6,81.7 C211.5,82.8 212,84 213.5,84 C214.3,84 215,83.6 215,83.1 C215,81.8 213.4,80.9 212.6,81.7 z" fill="#181616"/>
      <path d="M380.7,83.7 C379.7,84.6 379.8,91 380.8,91 C381.3,91 382.8,89.7 384.3,88.2 C386.4,86 386.7,85.1 385.8,84.2 C384.5,82.9 381.7,82.6 380.7,83.7 z" fill="#181616"/>
      <path d="M304,85.9 C304,86.4 304.9,87.2 306,87.5 C307.1,87.8 308,88.8 308,89.5 C308,91.6 309.9,92.4 310.6,90.6 C311,89.6 310.3,88.2 308.9,87 C306.3,84.9 304,84.4 304,85.9 z" fill="#181616"/>
      <path d="M558.2,86.2 C558.7,87.7 563,88.6 563,87.2 C563,86.2 560.7,85 558.8,85 C558.3,85 558,85.6 558.2,86.2 z" fill="#181616"/>
      <path d="M568.3,90.7 C566.1,92.2 565.1,96 566.9,96 C567.4,96 569,94.4 570.4,92.5 C573.3,88.8 572.2,87.9 568.3,90.7 z" fill="#181616"/>
      <path d="M52.5,94 C51.7,95.3 52.9,97.2 54.1,96.5 C55.3,95.7 55.3,93 54.1,93 C53.5,93 52.8,93.4 52.5,94 z" fill="#181616"/>
      <path d="M555,94.6 C555,96.9 558.6,100 559.9,98.7 C561.8,96.8 561.1,95.2 558,94.1 C555.6,93.3 555,93.4 555,94.6 z" fill="#181616"/>
      <path d="M38.3,108.2 C35.1,109.7 35.4,111.9 38.7,111.7 C40.8,111.5 41.5,112 42,114 C42.6,116.5 42.6,116.5 43.2,114.2 C43.6,112.9 44.6,112 45.8,112 C49,112 49.3,110.3 46.2,109.2 C44.7,108.7 42.8,108 42,107.7 C41.2,107.4 39.5,107.6 38.3,108.2 z" fill="#181616"/>
      <path d="M45,124.1 C45,125.2 45.5,125.8 46,125.5 C46.6,125.2 47,124.2 47,123.4 C47,122.6 46.6,122 46,122 C45.5,122 45,122.9 45,124.1 z" fill="#181616"/>
      <path d="M254.6,125.7 C253.8,127.6 254.7,129 256.6,129 C258.4,129 258.4,125.4 256.6,124.7 C255.8,124.4 254.9,124.8 254.6,125.7 z" fill="#181616"/>
      <path d="M269,128.7 C269,129.2 269.5,130.2 270,131 C270.8,132.2 271,132.1 271,130.2 C271,129 270.6,128 270,128 C269.5,128 269,128.3 269,128.7 z" fill="#181616"/>
      <path d="M350,130.8 C350,131.3 351.6,132.4 353.5,133.3 C357,134.9 357,134.9 356.1,133.1 C354.7,130.6 350,128.8 350,130.8 z" fill="#181616"/>
      <path d="M49.7,134.7 C48.4,135.9 49,138 50.5,138 C51.3,138 52,137.1 52,136 C52,134 50.9,133.4 49.7,134.7 z" fill="#181616"/>
      <path d="M264.3,135.6 C264,136.4 264.2,137.6 264.8,138.2 C266.4,139.8 269,138.4 269,136 C269,133.6 265.2,133.2 264.3,135.6 z" fill="#181616"/>
      <path d="M276,138.1 C276,139.9 276.4,140.1 278.7,139.5 C282.3,138.6 282.8,138.1 281,137 C278.4,135.3 276,135.9 276,138.1 z" fill="#181616"/>
      <path d="M171.1,139.9 C169.4,141 170.5,143 173,143 C175.3,143 176.4,140.4 174.4,139.6 C172.5,138.9 172.8,138.8 171.1,139.9 z" fill="#181616"/>
      <path d="M288.7,139.6 C287.3,141 288,142.1 290,141.8 C291.2,141.6 292.1,141 292.1,140.5 C292.1,139.3 289.7,138.7 288.7,139.6 z" fill="#181616"/>
      <path d="M4.1,142.9 C3.2,143.5 3.1,144 3.9,144.4 C5.2,145.2 7,144.3 7,142.9 C7,141.8 5.9,141.8 4.1,142.9 z" fill="#181616"/>
      <path d="M542.2,154.9 C540.4,156 541.1,159.4 543.1,159.8 C544,160 545,159.3 545.4,158.4 C546.2,156.2 544,153.8 542.2,154.9 z" fill="#181616"/>
      <path d="M237.5,0.9 C241.4,2.4 230.4,3 184.5,3.6 C149.9,4 137.5,4.5 134.5,5.5 C127.1,8 108.6,9.1 100.5,7.6 C97.3,7 96.1,7.1 95.1,8.4 C93.9,9.8 93.5,9.8 90.9,8.4 C89,7.5 86.7,7.1 84.7,7.5 C82.4,8 80.1,7.5 77.4,6.2 C73.6,4.3 72.8,4.3 55.5,5.6 C45.6,6.3 34.1,6.9 30,6.9 C22.4,7 22.4,7 18.3,11.2 L14.1,15.5 L13,46 C11.4,89 10.9,111.5 11.2,118.5 C11.3,121.8 11.4,127.1 11.3,130.2 C11.2,133.4 11.1,137 11.1,138.2 C11,141.4 12,153.1 12.5,155.6 C13,157.9 19.7,165.3 22.7,166.8 C24.4,167.6 86,167.6 156.5,166.7 C178.9,166.4 184,166 186.6,164.7 C189.3,163.3 190,163.3 191.6,164.5 C193.2,165.7 200.5,165.9 233.9,165.9 C256.4,165.9 279,165.4 284.9,164.8 C297.4,163.5 297.5,163.5 306.5,164.5 C312.2,165.1 314.8,164.9 320.4,163.2 C324.8,161.8 327.8,161.4 328.9,162 C331.9,163.7 344.5,164.7 352,163.9 C356.1,163.5 362.9,163.1 367.1,163.1 C371.8,163 375.9,162.4 377.6,161.5 C380.1,160.2 380.7,160.2 382.9,161.7 C385.1,163.1 387.5,163.2 401.4,162.5 C417.3,161.7 452,161.2 471.5,161.4 C492.8,161.6 500.9,160.8 504.5,158.4 C507.3,156.4 508,156.7 508,159.6 C508,161.7 508.3,162.1 509.8,161.5 C510.7,161.1 516.6,160.6 522.9,160.5 C532.7,160.4 534.5,160.1 535.7,158.5 C536.4,157.4 536.9,156.1 536.7,155.5 C536.1,153.8 528.2,153.7 525.8,155.4 C523.1,157.3 518.6,157.5 517.1,155.7 C516.4,154.8 513.4,154.3 507.9,154.3 C501.9,154.2 499.4,153.8 498,152.5 C496.7,151.3 495.4,151.1 493.8,151.6 C492.5,152 486.3,152.4 480,152.5 C473.7,152.6 466.3,153 463.5,153.4 C458.7,154.1 458.4,154.1 456.5,151.1 C454.1,147.5 453.6,147.4 451,150 C449.4,151.6 447.7,152 442.5,152 C438.9,152 434.3,151.3 432.3,150.5 C429.8,149.4 428.3,149.3 427.6,150 C427.1,150.5 424.9,151 422.8,151 C420.1,151 418.8,151.5 418,153 C417.4,154.1 416.3,155 415.5,155 C414.7,155 413.6,154.1 413,153 C412.4,151.9 411.3,151 410.6,151 C408.9,151 404.5,147 403.7,144.7 C403,142.8 399.5,142.4 398.4,144.1 C398.1,144.7 396.9,144.9 395.8,144.7 C394.4,144.3 392.7,145.2 390.2,147.6 C387.9,149.8 385.7,151 383.8,151 C380.5,151 380.1,149.5 383.1,148 C384.7,147.1 384.9,146.6 383.9,145.4 C382.2,143.3 380.9,143.7 378,147.2 L375.3,150.4 L372.6,147.7 C371.1,146.2 369.1,145 368.1,145 C366.4,145 363,148.9 361.7,152.3 C361.2,153.5 360.2,154 358.8,153.8 C356.8,153.5 356.5,152.9 356.5,149.5 L356.5,145.5 L351.7,145.2 C348.5,145 346,145.4 344.4,146.4 C341.4,148.4 338.6,148.4 337,146.5 C335.5,144.7 332.8,144.6 331.2,146.2 C330.4,147 329.7,147 328.4,145.9 C327.3,145 324.3,144.5 320.4,144.5 C315.2,144.5 314,144.8 313.7,146.2 C313.3,147.6 312.1,148 308.5,148 C306,148 303,147.5 301.9,146.9 C299.9,145.9 299.9,145.8 301.6,143.9 C302.5,142.9 304.5,142 305.9,142 C307.3,142 309.2,141.5 310,141 C311.3,140.2 311.3,139.9 310,138.5 C308.6,137.2 308.2,137.2 306,138.7 C304.6,139.7 302.7,140.3 301.8,140.2 C300.6,140 300,140.5 300,141.7 C300,145.1 298.2,146.5 293.8,146.7 C291.4,146.8 288.4,147 287,147.2 C284.9,147.5 284.5,147.1 284.5,145 C284.5,141.4 281.6,141.3 278.9,144.9 C276.8,147.8 276.5,147.9 274.8,146.3 C273.1,144.8 272.9,144.8 271.1,146.4 C269.7,147.7 268.3,148 265.8,147.5 C263.4,147 262,147.3 261.1,148.3 C260.1,149.6 259.5,149.6 256.8,148.3 C252.5,146.1 246.5,145.7 245,147.5 C243.6,149.2 240.4,149.5 239.5,148 C239.2,147.4 237.9,147 236.6,147 C235.4,147 234,146.6 233.4,146.1 C232.3,145 202.6,147.6 199.9,149.1 C198.5,149.8 196.9,149.8 194.7,149.1 C190.9,148 177.9,146.5 176.5,147.1 C175.2,147.6 161.7,148 147.9,147.9 C139.5,147.8 137.1,148.1 136.1,149.4 C134.4,151.4 131.4,151.5 130.6,149.5 C130.1,148.2 126.8,148 106.8,148.2 C84,148.3 83.4,148.4 79.8,150.8 L76.1,153.2 L73.1,150.7 C70.2,148.3 70,148.3 64.4,149.6 C59.5,150.7 58.2,150.7 55.2,149.4 C52.1,148.2 51,148.1 46.6,149.4 C40.8,151 31,151.2 29.4,149.9 C27.5,148.4 28,139.3 30,136.7 C31.6,134.8 31.7,134.2 30.4,131.8 C29.2,129.6 29.2,128.6 30.2,127 C31.2,125.4 31.2,124.4 30.1,121.8 C28.6,118.2 28.6,111 29.9,101.5 C31.3,92.3 30.4,70.9 28.6,66.5 C26.6,61.8 26.6,59.6 28.5,58 C29.7,57 29.9,55.4 29.6,51.3 C29.3,48.4 28.6,45.1 28,44 C27.4,42.8 27.3,41.3 27.9,39.8 C28.5,38.5 29.2,34.9 29.5,31.7 C30.2,25.1 31.9,23 36.4,23 C38.2,23 41.1,22.5 42.9,21.9 C45.3,21.1 46.4,21.1 47.5,22 C49.2,23.4 59.2,22.5 62,20.8 C63.2,20 64.4,20.2 66.6,21.3 C68.2,22.1 70.9,22.5 72.6,22.3 C74.4,22 77,22.5 78.7,23.3 C81.3,24.7 81.9,24.7 83.1,23.5 C84.3,22.3 91,21.9 118.5,21.5 C137.2,21.2 154.5,20.9 156.9,20.9 C159.4,20.9 162,20.4 162.8,19.8 C163.5,19.2 166.6,18.3 169.7,17.9 C174,17.3 175.8,17.5 177.6,18.6 C180.4,20.5 195.3,19.6 197.1,17.4 C198.6,15.6 201.4,15.6 202.9,17.4 C203.9,18.6 204.9,18.5 209.3,16.6 C212.2,15.3 216.6,14 219.2,13.6 C223.4,13 224,13.1 225.1,15.2 C225.8,16.5 226.8,17.8 227.4,18.2 C229.3,19.5 240.6,19 244.3,17.5 C248.2,15.9 253.2,15.5 254.4,16.7 C254.8,17.2 257.7,17.6 260.8,17.7 C264,17.8 267.6,18 269,18 C270.4,18.1 276,17.8 281.5,17.4 C300.6,15.9 371.9,16.6 374.8,18.4 C375.4,18.8 376.9,18.6 377.9,18 C380.6,16.6 409.8,15.8 410.6,17.2 C411,17.8 412.9,18 415.1,17.6 C417.5,17.2 419.8,17.5 420.9,18.2 C422.4,19.1 423.2,19.1 424.4,18.1 C425.7,17 426.5,17.2 429,19 C432,21.1 432.3,21.2 435.8,19.6 C438.4,18.5 440.6,18.3 443,18.8 C447.3,19.8 447.7,22.4 443.7,22.8 C441.4,23.1 440.9,23.6 441.2,25.3 C441.4,27 442.3,27.6 444.9,27.8 C446.8,28 448.9,28.9 449.5,29.7 C450.2,30.6 451.3,31 452.1,30.8 C452.9,30.5 454.3,31 455.3,31.8 C456.9,33.3 457.3,33.1 460.2,30.3 L463.3,27.2 L459.9,27.3 C457,27.5 456.5,27.2 456.7,25.5 C456.8,24 456,23.1 454,22.3 C451.8,21.5 451.3,20.7 451.7,19.2 C452,18.1 453.2,17 454.3,16.7 C456.1,16.4 466.3,16.6 471.5,17 C472.1,17.1 474.3,16.8 476.5,16.5 C482.5,15.5 487.5,17.1 487.7,20.1 C487.7,21.4 487.8,23.1 487.9,23.7 C488.1,25.7 489.8,25.2 490.5,23.1 C492.2,17.5 499.6,14 502.8,17.2 C503.8,18.2 504.5,18.2 506,17.2 C510.5,14.4 513.3,16.1 514.4,22.2 C515.2,26.5 515,26.4 518.5,24.8 C521.4,23.5 521.6,22.7 519.5,21 C518.7,20.3 518,19.2 518,18.5 C518,16.9 522.2,15.8 523.4,17 C524.7,18.3 528,18.3 528,17 C528,15.1 540.2,16 543.5,18.1 C545.2,19.1 547.5,20.5 548.8,21.1 C550,21.8 551,23.1 551,24.1 C551,25.1 551.8,26.5 552.9,27.2 C553.9,27.9 555,29.5 555.4,30.8 C556.1,32.8 556.6,33 561.3,32.4 C566.4,31.9 566.6,31.9 569.4,35.6 L572.3,39.3 L569.5,41.6 C567.1,43.5 566.8,44.1 567.9,45.4 C568.7,46.3 569,48.4 568.8,50.2 C568.2,54.1 569.4,58.2 572.7,63 C576.5,68.7 575.6,71.3 568.4,75.6 C566.7,76.6 565.9,82.2 567.2,83.6 C568,84.3 578,80.8 578,79.8 C578,79.4 577.6,78.8 577,78.5 C576.4,78.1 576.9,76.7 578.2,74.9 C580,72.5 580.2,71.6 579.3,70.1 C578.4,68.6 578.6,67.9 580.9,65.9 C582.4,64.5 583.9,62.8 584.1,62.1 C584.8,60.2 588,61.4 588,63.5 C588,64.3 587.2,65.8 586.2,66.8 C584.5,68.5 584.5,68.9 585.7,70.6 C586.7,72 587,74.2 586.5,78.5 C585.8,85.9 585.8,87.1 586.5,104.8 C586.9,115.3 587.4,119.7 588.5,121.3 C589.3,122.5 590,124.9 590,126.6 C590,130.2 592.9,136 594.7,136 C595.5,136 595.9,127 596.2,102.4 C596.5,71.8 596.7,68.7 598.3,67.6 C599.8,66.4 600,63.9 600,40.6 C600,24.6 599.6,15 599,15 C598.5,15 595.5,12.6 592.4,9.7 L586.8,4.3 L561.2,3.7 C535.4,3 530.6,2.5 531.6,0.9 C531.9,0.4 518.9,-0 501.1,-0 C474.1,-0 470,0.2 470,1.5 C470,3.4 471.6,3.3 445.5,3.1 C433.4,3 418.1,3.4 411.5,4 C403.6,4.6 396.7,4.6 391.5,4 C387.1,3.5 380.8,2.8 377.6,2.4 C373.6,2 372.1,1.5 373.1,0.9 C373.9,0.4 346.1,0.1 305,0.1 C266.8,0.1 236.4,0.5 237.5,0.9 z M561.4,13.6 C563.2,14.3 563.6,17.5 562,18.5 C560.7,19.3 553.3,17.2 552.4,15.9 C551,13.6 557.4,12.1 561.4,13.6 z M575.4,14.8 C575.7,15.3 577.2,15.5 578.8,15.2 C581.9,14.8 584.4,16.9 583.8,19.6 C583.5,21.6 577.3,25.3 575.9,24.5 C575.4,24.1 575,23.1 575,22.1 C575,21.2 573.7,19.3 572,18 C570.4,16.6 569.1,15.2 569,14.7 C569,13.7 574.8,13.8 575.4,14.8 z M258,152.4 C258,154.9 256.8,157 255.5,157 C253.7,157 252.8,154 254.1,152.4 C255.6,150.6 258,150.6 258,152.4 z" fill="#181616"/>
      <path d="M532,105.2 C527.3,112.5 527.3,113 530.1,120.4 C531.5,124.2 532.8,126.1 534.3,126.5 C535.5,126.8 537.5,127.6 538.8,128.2 C540.5,129.1 541.3,129.1 542.2,128.2 C542.9,127.5 544.4,127 545.6,127 C547,127 548.9,125.7 550.6,123.5 C552.9,120.4 553.2,119.3 552.8,113.9 C552.4,108.7 552,107.5 549.4,105.5 C547,103.5 545.3,103.1 540,103 C534.3,103 533.3,103.3 532,105.2 z" fill="#181616"/>
      <path d="M527.5,43.9 C527.2,44.5 527.6,45.3 528.4,45.7 C532.1,47.7 526,54.4 520.5,54.5 C517.8,54.5 517.9,57.4 520.6,57.8 C525.9,58.6 528.5,67.1 525.4,73.8 C523.4,78.1 523.9,80.6 526.7,80.2 C529.2,79.9 530.4,82.5 529.5,86.3 C529,87.9 529.6,89.8 531.3,92.3 C535.6,98.6 536.7,99.4 539.9,98 C541.4,97.4 543.9,97.2 545.3,97.6 C547.7,98.2 548,97.9 548,95.5 C548,93.8 549,91.8 550.6,90.3 C552.7,88.4 553,87.4 552.5,85 C552,82.7 552.2,82 553.4,82 C554.6,82 554.8,81.3 554.4,79.1 C554,77.2 554.4,75.3 555.4,73.9 C557.2,71.3 557.7,58 556,58 C555.5,58 555,57.5 555,56.8 C555,56.2 553.5,53.5 551.8,50.9 C548.7,46.5 548.1,46.2 543.2,45.6 C540.1,45.2 537.1,45.4 535.9,46 C533.5,47.3 530,46.4 530,44.4 C530,42.8 528.4,42.5 527.5,43.9 z" fill="#181616"/>
      <path d="M447.2,36.3 C444.7,39 444.4,41 446.5,41 C449.8,41 450.7,45.9 450.5,62.5 C450.3,71.3 450.2,79.2 450.1,80 C449.6,88.3 450.8,125.2 451.6,126 C453.1,127.5 486.5,127.7 488.3,126.2 C489.1,125.5 490.4,125.2 491.3,125.6 C492.1,125.9 493.1,125.7 493.5,125.1 C494.5,123.4 498,123.8 501.2,126.1 C503.8,128 504.1,128.8 503.7,131.6 C503.3,134.1 503.5,135 504.5,135 C505.5,135 505.7,134.1 505.3,131.5 C504.9,128.8 505.2,127.6 506.5,126.6 C507.8,125.6 508.1,124.6 507.6,122.5 C507,120.3 507.4,119.1 509.3,117.1 C512.8,113.3 518,104.3 518.7,100.9 C520.2,93.4 521.8,90.5 524.7,90 C528.1,89.4 528.5,86.6 525.2,86.2 C522.4,85.8 520.3,81.3 521.9,78.8 C522.7,77.6 522.5,77 521.3,76.6 C520.2,76.2 520,75.2 520.4,73.5 C520.8,71.9 520.5,70.1 519.5,68.7 C518.7,67.5 518,65.8 518,64.9 C518,64 516.5,61.7 514.6,59.8 C512.8,57.9 510.7,55.4 510.1,54.2 C509.5,53 508.3,52 507.5,52 C506.7,52 505.5,51.1 504.7,50 C503.6,48.4 502.6,48.1 500.7,48.5 C499.1,48.9 495.3,48.2 490.7,46.7 C484.6,44.6 482.5,44.3 479.1,45.1 C476.2,45.7 474.4,45.7 473,44.8 C471.5,43.8 470.8,43.8 469.8,44.8 C469.1,45.5 465.5,46 460.3,46 C451,46 449.5,44.9 452.4,40.5 C454.4,37.4 454.4,35.4 452.4,34.6 C450,33.7 449.5,33.8 447.2,36.3 z M489,72.4 C493.2,77.9 493.8,79.8 491.9,81.7 C491,82.6 491,83.7 491.9,86 C492.6,88.1 492.6,89.8 492,91 C491.4,92 491,93.8 491,95 C491,96.1 489.5,99.1 487.8,101.5 C485.3,104.9 483.8,105.9 481.7,106 C478.3,106 477.5,104.1 478.9,99.7 C479.8,96.9 479.7,94.7 478.4,88.9 C477.5,84.8 476.8,80.1 476.9,78.5 C477,76.8 477.1,73.6 477.1,71.3 C477.1,67.8 477.4,67.1 479.3,66.8 C483.2,66.2 484.9,67.1 489,72.4 z" fill="#181616"/>
      <path d="M361.6,43.5 C362,45.3 361.4,46.9 359.1,49.9 C357.4,52 356,54.6 356,55.6 C356,56.7 354.6,60.4 353,63.8 C351.3,67.3 350,70.7 350,71.4 C350,73.8 347.3,76.3 345.6,75.7 C344,75.1 344,74.8 345.7,72 C347.1,69.5 347.2,68.6 346.2,67 C344.7,64.6 344.6,61.3 346,60.5 C346.5,60.2 346.8,58.5 346.6,56.7 C346.3,54.9 346.1,52.5 346.1,51.3 C345.9,47.3 343.9,46.5 333.6,46.2 C320.9,45.8 319.1,46.8 319,54.3 C318.9,63 318.9,63.4 319.6,67.2 C319.9,69.2 319.8,71.5 319.3,72.3 C318.9,73.2 318.8,77.4 319.1,81.7 C319.6,88 319.4,89.7 318.1,90.8 C316.8,91.8 316.8,92.4 317.8,94 C319.3,96.4 319.4,99.7 318,100.5 C317.3,100.9 317.3,101.8 318,103.1 C318.6,104.2 319,106.9 318.9,109.3 C318.9,111.6 319.1,114.9 319.5,116.6 C320,118.8 319.7,120 318.6,120.9 C316.3,122.8 316.6,126.9 319.2,129 C321.4,130.7 321.5,130.7 322.5,128.6 C323.5,126.6 324.2,126.5 333.8,126.8 L344.1,127 L345.8,124 C347.5,121.1 350,119.9 350,122.1 C350,123.8 354.5,122.7 354.8,120.8 C355,119.6 354.3,119.1 352.3,118.8 C349.2,118.5 347.6,115.9 346.5,109.8 C345.5,104.4 348,103.7 352.6,108.1 C355.3,110.7 356,112.2 356,115.1 C356,117.1 356.7,119.3 357.5,120 C358.3,120.7 359,122.4 359,123.9 C359,128.7 360.3,129.6 365,128 C370.2,126.3 378.3,126.2 380.4,127.9 C381.5,128.8 382.4,128.9 383.9,128.1 C385,127.5 387.6,127 389.7,127 C391.9,127 394.2,126.4 394.8,125.8 C395.8,124.8 396.5,124.8 398.1,125.8 C400.3,127.2 414,127.6 421.4,126.5 C424.7,126 426.1,126.2 427.4,127.6 C428.9,129 429.6,129.1 431.1,128.2 C432.1,127.5 435.4,127 438.4,127 C444.5,127 446.6,125.4 445.6,121.5 C445.2,120.1 445.4,118.1 446,117 C446.8,115.5 446.7,114.3 445.6,112.2 C444.8,110.7 443.9,108.7 443.6,107.8 C443.2,106.3 441.4,106 431.4,105.8 L419.6,105.5 L418.8,102.1 C417.3,96.6 419.4,95.2 428.8,95.8 C438.7,96.3 439.6,95.6 440.4,86.5 C440.7,82.6 440.6,78.9 440.2,78.3 C439.7,77.5 436.4,77 430.7,76.9 C425.9,76.8 421.3,76.2 420.6,75.6 C419.8,75 419,72.9 418.8,71 L418.5,67.5 L429.5,66.9 C444.1,66.1 445.3,65.7 444.7,61.7 C444.5,59.9 444.7,57.7 445.2,56.7 C446.3,54.5 443.1,45 441.2,45 C440.5,45 439,45.5 437.9,46 C436.6,46.8 435.4,46.7 433.9,45.9 C432.4,45.2 431.5,45.1 430.7,45.9 C430,46.6 429.1,46.6 427.9,45.9 C426.7,45.3 424.5,45.3 421.8,45.9 C419.3,46.5 415,46.6 411.5,46.1 C406.8,45.4 405.2,45.5 403.8,46.7 C402.5,47.9 401.8,47.9 400.1,46.9 C398.7,45.9 397.3,45.9 395.3,46.6 L392.5,47.6 L392.5,68.5 C392.5,80.1 392.2,89.9 391.9,90.5 C391.5,91 391.6,95.8 392,101 C392.4,106.9 392.3,111.1 391.7,112.1 C391,113.2 391.1,114.8 391.8,117 C393,120.4 392.7,122 390.6,122 C389,122 384.6,111.5 384.5,107.7 C384.5,106.1 383.7,104.3 382.8,103.6 C381.8,102.9 381,101.8 381,101.2 C381,100.7 379.4,97.8 377.4,94.9 C370.7,85 369.8,82.1 372.3,79.1 C373,78.2 374.5,75.5 375.5,73 C376.5,70.5 377.9,68 378.5,67.5 C381.1,65.1 384.9,59.3 385.6,56.5 C385.9,54.8 387.3,52.1 388.6,50.3 C389.9,48.6 391,46.8 391,46.5 C391,46.1 387.1,46.1 382.3,46.5 C370.7,47.3 364.6,46.2 364.2,43.2 C364,42 363.2,41 362.4,41 C361.4,41 361.1,41.7 361.6,43.5 z M349.4,97.9 C349.8,98.4 349.6,99.9 349.2,101.1 L348.3,103.4 L347.1,101.2 C345.9,99 346.3,97 348,97 C348.5,97 349.1,97.4 349.4,97.9 z" fill="#181616"/>
      <path d="M217.1,44.9 C216.3,45.4 213,45.8 209.6,45.9 C204.5,45.9 202.8,46.5 199.2,49 C196.9,50.6 194.4,52 193.7,52 C192.3,52 188,57.2 188,58.9 C188,59.5 187.4,60.3 186.7,60.7 C185.5,61.4 183.1,65.5 180.1,72 C178.4,75.8 178.1,95.8 179.7,97.2 C180.4,97.8 181,99.3 181,100.6 C181,102.5 180.4,103 176.8,103.5 C171,104.3 159.7,103.7 158.8,102.6 C158.4,102 158.5,100.9 159,100 C159.5,99.1 159.5,97.8 158.9,96.9 C157.5,94.6 157.9,89.8 159.6,87.8 C161,86.3 161.1,85.8 160,84.5 C159,83.3 159,82.6 159.8,81.8 C161.5,80.1 161.3,76.5 159.5,75 C157.6,73.4 157.6,71 159.5,68.2 C160.8,66.4 160.9,65.6 159.9,63.8 C159.2,62.5 158.7,58.3 158.7,54.3 C158.9,47.4 158.7,47 156.5,46.4 C155.2,46.1 151.5,46.1 148.3,46.4 C145.1,46.7 142.1,46.9 141.5,47 C141,47 139.2,46.8 137.7,46.4 C135.7,45.9 134.4,46.3 132.9,47.6 C131.1,49.3 130.9,50.5 131,64.9 C131.1,73.5 131.2,86.6 131.3,94 C131.3,101.4 131.4,111.8 131.4,117 L131.5,126.5 L156.5,126.5 C178.2,126.5 181.5,126.3 181.1,125 C180.5,122.2 180.2,112.5 180.7,110.3 C181.4,107.3 183.7,108.4 184.5,112.1 C185.2,115.4 194.5,124 197.3,124 C199.7,124 206,128.8 206,130.6 C206,132.7 208.7,132.3 209.3,130.1 C209.7,128.6 211.1,128.1 218.6,127.5 C223.4,127.1 228.4,126.2 229.6,125.4 C232.1,123.7 234.2,124.3 238.7,127.9 C242.4,130.8 242.6,131.5 240.5,133.6 C239,135.1 238.4,139 239.6,139 C240,139 241.3,138 242.4,136.8 C243.6,135.5 245.5,134 246.6,133.3 C248.5,132.1 248.4,132.1 246.3,130.3 C244.7,129 244.2,127.8 244.6,126.2 C245.3,123.9 244.4,123.4 242.1,124.9 C240.2,126.1 238,125.2 238,123.1 C238,119.2 243.8,117.3 244.7,120.9 C245.1,122.4 246.1,122.9 249.1,122.8 C251.2,122.8 253.5,122.1 254.1,121.4 C254.7,120.6 256.4,120 257.9,119.9 C259.9,119.8 259.7,119.6 256.6,118.9 C253.4,118.1 252.3,118.3 250.8,119.7 C249.1,121.2 248.8,121.2 248,120 C246.5,117.6 246.9,113.5 248.8,110.9 C252.1,106.4 253.1,103.5 252.8,99 C252.5,95.1 252.8,94.5 254.5,94.5 C256,94.5 256.6,95.3 256.8,97.5 C257.6,107.3 263,120 266.2,120 C267.3,120 269.4,121.3 270.8,123 C272.3,124.6 274.2,126 275.2,126 C276.1,126 277.2,126.4 277.5,127 C277.8,127.5 280.8,128 284.1,128 C289.7,128 290.1,128.2 289.5,130 C288.7,132.4 289.7,132.6 292.2,130.3 C293.8,128.8 294.4,128.8 296.2,129.9 C298,131 298.4,131 299.2,129.7 C299.6,128.9 301.8,127.9 304,127.5 C306.3,127.1 309.3,125.6 311,124 C314,121.2 314,121.1 313.9,110.6 C313.9,104.8 313.6,100 313.4,100 C313.1,100 311.9,100.6 310.7,101.4 C307.9,103.3 295.9,104.9 293.4,103.8 C289.7,102.1 283.8,90.1 284.7,86 C285,84.6 285.7,83.1 286.1,82.5 C286.6,82 287,80.3 287,78.6 C287,74.5 295.2,66.5 298.4,67.5 C299.5,67.9 302.1,68.5 304,68.9 C305.9,69.4 308.7,70.1 310.1,70.4 L312.7,71.1 L313.4,60.4 C314.1,49.9 314.1,49.6 311.8,47.8 C310.2,46.6 307.6,46 303.5,45.9 C290.1,45.7 284,46.2 279.8,47.8 C274.4,49.9 266.2,55.7 265.5,58.1 C265.2,59 263.8,60.5 262.5,61.4 C261.1,62.3 260,63.8 260,64.8 C260,65.8 259.5,67.1 258.9,67.7 C258.3,68.3 257.7,70.8 257.5,73.2 C257,80.9 255.8,88 255,88 C254.3,88 253.8,84.7 252.3,71.5 C252,68.2 251.1,66.1 249.9,65.2 C248.8,64.5 248,63 248,61.9 C248,59.6 238.8,50.7 233.4,47.8 C231.6,46.8 228.2,46 226.1,46 C223.9,46 221.8,45.5 221.5,45 C220.7,43.8 219,43.7 217.1,44.9 z M222,69 C224.1,71.1 224.4,74.5 224,91.3 C223.9,97 223.4,98.8 220.9,102.5 C219.2,105 217.4,107.2 216.9,107.6 C215.5,108.5 211.4,105.5 210.7,103 C210.3,101.3 211,100.6 215.1,98.7 C217.8,97.5 220,96.1 220,95.7 C220,94.1 217,93.9 214.8,95.4 C211.7,97.6 210.5,97.4 208.6,94.5 C207.1,92.3 207.1,91.7 208.6,88 C210.2,84.1 210.2,83.9 208,82.2 C205.8,80.4 205.8,80.2 207.2,77.4 C208.1,75.8 209.5,72.8 210.4,70.7 C211.8,67.3 212.3,67 216,67 C218.7,67 220.7,67.7 222,69 z" fill="#181616"/>
      <path d="M68.5,46 L59.5,46.5 L59.7,55 C59.8,59.7 59.9,64.4 60,65.5 C60.1,66.6 59.9,70.9 59.6,75 C59.2,79.1 59,83.2 59,84 C59,84.8 59.2,94.7 59.3,106 L59.5,126.5 L67.5,126.5 C72.4,126.5 76.4,127 77.9,127.9 C79.8,129 80.7,129 82.7,127.9 C84.6,126.9 86.5,126.8 92.3,127.8 C99.1,129 99.5,129 101,127.1 C102,125.7 103.2,125.2 104.7,125.6 C106.1,126 108.2,125.3 110.6,123.6 C112.7,122.2 114.9,121 115.5,121 C116.1,121 118.4,119.1 120.7,116.7 C125.8,111.5 128.1,103.9 126.2,98.7 C125.5,96.8 125,94.5 125,93.4 C125,91.3 120.2,85.6 116.1,82.7 L113.7,81.1 L117.6,76.8 C119.8,74.4 122.1,70.7 122.9,68.4 C124.1,64.6 124,63.9 121.6,58.9 C118.4,52.1 112.8,48 106.8,48 C104.7,48 102,47.5 101,47 C98.8,45.8 81.4,45.3 68.5,46 z M91.4,63.4 C96,65.3 97,67.4 95.6,72.2 C93.8,78 89.6,79.8 85.9,76.4 C84.5,75.1 84.3,74.3 85.1,72.2 C85.7,70.8 85.8,68.5 85.5,67.2 C85.2,65.9 85.4,64.2 86.1,63.4 C87.5,61.7 87.3,61.7 91.4,63.4 z M95.5,95.6 C99.3,99.2 99.3,103.4 95.4,106.5 C89.4,111.4 82.8,108.7 85,102.3 C85.6,100.7 85.9,98.3 85.8,97 C85.5,94.9 86,94.4 89,93.9 C90.9,93.5 92.5,93.2 92.6,93.1 C92.7,93.1 94,94.2 95.5,95.6 z" fill="#181616"/>
    </g>
  </g>
</svg>
