<svg xmlns="http://www.w3.org/2000/svg" width="154.466" height="57.722" viewBox="0 0 154.466 57.722">
  <g id="logo-white" transform="translate(-1291.407 681)">
    <g id="Group_277" data-name="Group 277" transform="translate(1291.408 -669.855)">
      <path id="Path_562" data-name="Path 562" d="M1300.682-578.94q-4.79,0-6.945-2.01t-2.242-6.678q-.088-4.236-.087-9.056t.087-9.056q.087-4.625,2.242-6.635t6.945-2.01q4.789,0,6.879,2.01t2.264,6.635q.174,4.323.174,9.1t-.174,9.013q-.174,4.668-2.264,6.678T1300.682-578.94Z" transform="translate(-1291.408 614.385)" fill="#fff"/>
      <path id="Path_563" data-name="Path 563" d="M1421.1-579.8v-34.58h8.4q4.876,0,7.031,1.967t2.329,6.462q.043,1.211.066,2.118t0,1.815q-.023.908-.066,2.118a11.392,11.392,0,0,1-.958,4.6,6.023,6.023,0,0,1-2.656,2.745l4.093,12.751h-6.922l-3.309-11.671h-1.48V-579.8Z" transform="translate(-1399.243 614.385)" fill="#fff"/>
      <path id="Path_564" data-name="Path 564" d="M1550.19-578.94a13.017,13.017,0,0,1-5.246-.886,5.667,5.667,0,0,1-2.9-2.788,12.931,12.931,0,0,1-1.045-5.014q-.044-1.815-.087-4.128t-.043-4.8q0-2.485.043-4.777t.087-4.02a13.807,13.807,0,0,1,1.067-5.274,5.713,5.713,0,0,1,2.917-2.875,12.885,12.885,0,0,1,5.2-.886q4.572,0,6.661,2.01t2.395,6.635q.087.995.087,2.377t-.087,2.377h-6.531q.087-1.21.087-2.982t-.087-2.983q-.131-2.161-2.525-2.161-2.526,0-2.656,2.161-.175,3.026-.24,6.657t0,7.24q.065,3.609.24,6.635.13,2.2,2.656,2.2a3.236,3.236,0,0,0,2-.562,2.171,2.171,0,0,0,.827-1.642q.043-.519.065-1.318t0-1.621q-.023-.821-.065-1.3h-2.395v-5.619h8.751q.087,1.989.065,4.322t-.109,4.323q-.218,4.668-2.351,6.678T1550.19-578.94Z" transform="translate(-1498.833 614.385)" fill="#fff"/>
    </g>
    <rect id="Rectangle_184" data-name="Rectangle 184" width="154.466" height="5.65" transform="translate(1291.407 -681)" fill="#fff"/>
    <rect id="Rectangle_185" data-name="Rectangle 185" width="154.366" height="5.856" transform="translate(1291.507 -629.134)" fill="#fff"/>
    <g id="Group_278" data-name="Group 278" transform="translate(1360.096 -668.802)">
      <path id="Path_565" data-name="Path 565" d="M1699.042-596.22c-.055-3.239-.055-5.558,0-8.724.037-2.245,1.03-3.147,3.457-3.147,2.391,0,3.366.9,3.439,3.147.092,3.184.092,5.5,0,8.724-.074,2.264-1.048,3.147-3.439,3.147C1700.071-593.073,1699.078-593.957,1699.042-596.22Zm4.782.092c.11-3.239.11-5.669,0-8.926-.018-.957-.368-1.288-1.324-1.288-.974,0-1.324.331-1.343,1.288-.129,3.221-.129,5.65,0,8.926.018.975.368,1.307,1.343,1.307C1703.455-594.822,1703.8-595.153,1703.823-596.128Z" transform="translate(-1699 608.091)" fill="#fff"/>
      <path id="Path_566" data-name="Path 566" d="M1752.614-607.211h3.31c2.3,0,3.237.865,3.31,2.981.037,1.344.055,2.356,0,3.552-.073,2.116-1.03,2.981-3.31,2.981h-1.214v5.208h-2.1Zm3.31,7.638c.828,0,1.158-.313,1.2-1.012a31.553,31.553,0,0,0,0-3.736c-.018-.7-.368-1.012-1.2-1.012h-1.214v5.761Z" transform="translate(-1743.579 607.358)" fill="#fff"/>
      <path id="Path_567" data-name="Path 567" d="M1803.253-607.211h5.793v1.877h-3.7v4.454h3.513V-599h-3.513v4.638h3.7v1.877h-5.793Z" transform="translate(-1785.684 607.358)" fill="#fff"/>
      <path id="Path_568" data-name="Path 568" d="M1847.562-607.211h3.77l.956,4.675,1.122,8.171h.809l-.349-7.086-.147-5.76h2.133v14.723h-3.917l-1.012-5.043-.883-7.822h-.846l.313,7.288.166,5.577h-2.115Z" transform="translate(-1822.526 607.358)" fill="#fff"/>
      <path id="Path_569" data-name="Path 569" d="M1936.07-607.211h3.237c2.3,0,3.237.865,3.31,2.981.055,1.38.055,2.227,0,3.46-.055,1.38-.46,2.208-1.361,2.632l1.6,5.65h-2.225l-1.38-5.3h-1.085v5.3h-2.1Zm3.237,7.546c.828,0,1.177-.313,1.214-.994.055-1.288.055-2.374,0-3.662-.037-.7-.386-1.012-1.214-1.012h-1.14v5.669Z" transform="translate(-1896.118 607.358)" fill="#fff"/>
      <path id="Path_570" data-name="Path 570" d="M1987.147-607.211h2.1v14.723h-2.1Z" transform="translate(-1938.588 607.358)" fill="#fff"/>
      <path id="Path_571" data-name="Path 571" d="M2012.481-596.183c-.055-2.687-.055-6.073,0-8.705.092-2.282,1.048-3.2,3.476-3.2,2.354,0,3.311.883,3.439,3.092.037.773.037,1.6,0,2.374h-2.115c.037-.92.037-1.675,0-2.595-.037-.828-.368-1.123-1.324-1.123-.993,0-1.324.295-1.361,1.123-.129,3.147-.129,6.11,0,9.257.037.847.368,1.141,1.361,1.141,1.048,0,1.38-.295,1.435-1.141a19.784,19.784,0,0,0,0-2.1h-1.232v-1.859h3.292c.037,1.325.037,2.613-.018,3.736-.092,2.227-1.067,3.11-3.476,3.11C2013.53-593.073,2012.555-593.957,2012.481-596.183Z" transform="translate(-1959.619 608.091)" fill="#fff"/>
      <path id="Path_572" data-name="Path 572" d="M2064.088-607.211h2.1v6.331h2.5v-6.331h2.115v14.723h-2.115V-599h-2.5v6.515h-2.1Z" transform="translate(-2002.563 607.358)" fill="#fff"/>
      <path id="Path_573" data-name="Path 573" d="M2116.264-605.334h-2.409v-1.877h6.9v1.877h-2.391v12.846h-2.1Z" transform="translate(-2043.943 607.358)" fill="#fff"/>
      <path id="Path_574" data-name="Path 574" d="M2163.263-596.183a22.436,22.436,0,0,1,.055-2.466h2a20.456,20.456,0,0,0,0,2.816c.037.718.459,1.012,1.361,1.012.865,0,1.269-.295,1.343-1.012a15.569,15.569,0,0,0,0-2.264,1.387,1.387,0,0,0-1.14-1.38l-1.361-.313c-1.71-.405-2.262-1.4-2.3-3.239-.019-.663-.019-1.288,0-1.969.073-2.208,1.066-3.092,3.457-3.092,2.336,0,3.311.883,3.384,3.092.019.663.019,1.546-.018,2.374h-2.042c.037-.994.055-1.859.019-2.724-.019-.7-.441-.994-1.343-.994-.865,0-1.287.295-1.343.994a12.223,12.223,0,0,0,0,2.319c.037.773.276,1.233.92,1.38l1.232.258c1.895.423,2.574,1.454,2.648,3.294.019.607.019,1.325-.018,1.914-.092,2.227-1.067,3.11-3.421,3.11C2164.33-593.073,2163.355-593.957,2163.263-596.183Z" transform="translate(-2084.982 608.091)" fill="#fff"/>
      <path id="Path_575" data-name="Path 575" d="M1699.042-486.184c-.055-2.687-.055-6.073,0-8.705.092-2.282,1.048-3.2,3.476-3.2,2.354,0,3.31.883,3.439,3.092.037.773.037,1.6,0,2.374h-2.115c.037-.92.037-1.675,0-2.6-.037-.828-.368-1.123-1.324-1.123-.993,0-1.324.294-1.361,1.123-.129,3.147-.129,6.11,0,9.257.037.847.368,1.141,1.361,1.141,1.048,0,1.379-.294,1.434-1.141a19.914,19.914,0,0,0,0-2.1h-1.232v-1.859h3.292c.037,1.325.037,2.613-.018,3.736-.092,2.227-1.067,3.11-3.476,3.11C1700.09-483.074,1699.115-483.958,1699.042-486.184Z" transform="translate(-1699 516.496)" fill="#fff"/>
      <path id="Path_576" data-name="Path 576" d="M1750.649-497.211h3.237c2.3,0,3.237.865,3.311,2.981.055,1.38.055,2.227,0,3.46-.055,1.38-.46,2.208-1.361,2.632l1.6,5.65h-2.225l-1.379-5.3h-1.085v5.3h-2.1Zm3.237,7.546c.828,0,1.177-.313,1.214-.994.055-1.288.055-2.374,0-3.662-.037-.7-.386-1.012-1.214-1.012h-1.14v5.668Z" transform="translate(-1741.945 515.762)" fill="#fff"/>
      <path id="Path_577" data-name="Path 577" d="M1800.539-486.221c-.055-3.239-.055-5.558,0-8.724.037-2.245,1.03-3.147,3.458-3.147,2.391,0,3.365.9,3.439,3.147.092,3.184.092,5.5,0,8.724-.073,2.264-1.048,3.147-3.439,3.147C1801.569-483.074,1800.576-483.958,1800.539-486.221Zm4.782.092c.11-3.239.11-5.669,0-8.926-.018-.957-.368-1.288-1.324-1.288-.975,0-1.324.331-1.343,1.288-.129,3.221-.129,5.65,0,8.926.019.975.368,1.307,1.343,1.307C1804.953-484.823,1805.3-485.154,1805.321-486.129Z" transform="translate(-1783.393 516.496)" fill="#fff"/>
      <path id="Path_578" data-name="Path 578" d="M1854.049-485.432c-.055-3.92-.037-7.858,0-11.779h2.115c-.055,3.92-.037,8.079,0,12,0,.773.4,1.123,1.324,1.123s1.324-.35,1.324-1.123c.036-3.92.073-8.079,0-12h2.115c.055,3.92.055,7.859,0,11.779-.037,2.208-1.012,3.092-3.439,3.092S1854.085-483.224,1854.049-485.432Z" transform="translate(-1827.891 515.762)" fill="#fff"/>
      <path id="Path_579" data-name="Path 579" d="M1908.789-497.211h3.31c2.3,0,3.237.865,3.311,2.981.037,1.344.055,2.356,0,3.552-.074,2.116-1.03,2.981-3.311,2.981h-1.214v5.208h-2.1Zm3.31,7.637c.828,0,1.159-.313,1.2-1.012a31.763,31.763,0,0,0,0-3.736c-.018-.7-.368-1.012-1.2-1.012h-1.214v5.76Z" transform="translate(-1873.435 515.762)" fill="#fff"/>
    </g>
  </g>
</svg>
