<svg xmlns="http://www.w3.org/2000/svg" id="Layer_1" viewBox="0 0 709 105">
  <style>
    .st1{fill:#010e33}
  </style>
  <ellipse cx="399.9" cy="64.6" fill="#33f" rx="15.2" ry="15.6"/>
  <path d="M317.6 100.8h-15.3V32.6h-25.4l25.3-29.3 15.4-.1zM130.1 1.8c-27.3 0-49.5 20.8-49.5 50.7s22.2 50.7 49.5 50.7 49.6-20.8 49.6-50.7-22.2-50.7-49.6-50.7zm0 85.4c-19 0-32.4-14.3-32.4-35s13.4-34.9 32.4-34.9 32.4 14.3 32.4 34.9-13.4 35-32.4 35zM79.1 4.2H0v15.2h31.9v81.4h15.2V19.4h32zM230.3 3.3h-33.6v97.5h16V63.2h17.6c27.9 0 33.5-19.1 33.5-29.9s-5.6-30-33.5-30zm0 45h-16.8v-30h16.8c13.9 0 16.7 9.5 16.7 15s-2.7 15-16.7 15zM579.9 3.3h-33.6v97.5h16V63.2h17.6c27.9 0 33.5-19.1 33.5-29.9s-5.6-30-33.5-30zm0 45h-16.8v-30h16.8c14 0 16.7 9.5 16.7 15s-2.8 15-16.7 15zM386.1 1.8c-27.3 0-49.5 20.8-49.5 50.7s22.1 50.7 49.5 50.7 49.5-20.8 49.5-50.7-22.2-50.7-49.5-50.7zm0 85.4c-19 0-32.4-14.3-32.4-35s13.4-34.9 32.4-34.9 32.4 14.3 32.4 34.9-13.5 35-32.4 35zM693.1 3.4v68.5l-44-68.5h-20.7v97.4h15.9V26.7l48.4 74.1H709V3.4zM515.8 3.4l-27.7 76-27.8-76h-16l35.6 97.4h16.3l35.6-97.4z" class="st1"/>
</svg>